<?xml version="1.0" standalone="no"?>
<!DOCTYPE svg PUBLIC "-//W3C//DTD SVG 20010904//EN"
 "http://www.w3.org/TR/2001/REC-SVG-20010904/DTD/svg10.dtd">
<svg version="1.0" xmlns="http://www.w3.org/2000/svg"
 width="206.000000pt" height="206.000000pt" viewBox="0 0 206.000000 206.000000"
 preserveAspectRatio="xMidYMid meet">
<metadata>
Created by potrace 1.14, written by Peter Selinger 2001-2017
</metadata>
<g transform="translate(0.000000,206.000000) scale(0.100000,-0.100000)"
fill="#000000" stroke="none">
<path d="M968 2044 c-29 -15 -68 -80 -61 -100 6 -16 -14 -29 -343 -218 -279
-159 -293 -166 -332 -160 -37 6 -44 3 -72 -24 -16 -17 -30 -38 -30 -47 0 -22
27 -72 42 -77 9 -3 12 -96 12 -371 l1 -367 -32 -31 c-83 -77 -31 -209 81 -209
21 0 46 5 56 10 16 8 74 -21 329 -167 171 -98 311 -184 311 -191 0 -8 7 -27
17 -42 43 -73 149 -62 173 18 11 35 24 44 320 215 279 160 311 176 335 167 79
-30 155 9 171 87 9 47 -3 82 -39 116 l-32 30 0 361 -1 361 23 28 c32 39 30 82
-4 113 -24 22 -34 25 -70 20 -35 -5 -50 0 -95 27 -29 18 -172 100 -316 182
-225 129 -262 153 -262 173 0 82 -107 138 -182 96z m107 -59 c30 -29 32 -64 5
-93 -20 -22 -64 -29 -86 -14 -15 10 -34 47 -34 67 0 23 45 65 70 65 12 0 32
-11 45 -25z m-168 -177 c-13 -24 -48 -83 -77 -133 -29 -49 -64 -111 -79 -136
-161 -285 -498 -859 -503 -859 -4 0 -7 163 -6 362 l0 363 23 23 c13 13 27 36
30 52 6 25 33 44 213 148 114 66 254 147 312 180 58 33 106 57 108 52 2 -5 -8
-28 -21 -52z m571 -138 c252 -144 282 -164 282 -187 0 -15 12 -36 28 -52 l29
-26 0 -358 c0 -197 -3 -359 -7 -362 -11 -7 -312 523 -304 537 13 20 5 71 -14
88 -10 9 -29 20 -44 23 -21 6 -43 37 -111 154 -46 82 -114 198 -150 260 -36
61 -63 114 -60 117 4 3 20 -3 37 -13 17 -10 158 -91 314 -181z m-257 -97 c79
-137 143 -257 142 -268 -4 -57 -19 -70 -220 -185 -109 -62 -202 -115 -207
-118 -9 -5 -3 101 9 158 3 14 8 45 11 70 3 25 7 56 9 70 4 32 15 107 20 140 2
14 6 45 10 70 6 53 16 117 21 144 2 10 6 44 9 75 9 78 14 91 35 91 13 0 57
-67 161 -247z m-262 97 c-11 -74 -22 -153 -24 -175 -3 -22 -8 -51 -10 -65 -2
-14 -7 -45 -10 -70 -3 -25 -12 -88 -20 -141 -8 -53 -17 -118 -20 -145 -5 -35
-13 -55 -31 -70 -14 -11 -28 -34 -33 -50 -6 -25 -37 -46 -227 -156 -269 -156
-263 -153 -270 -145 -3 3 63 124 146 268 84 144 164 283 179 309 87 154 335
579 337 577 1 -1 -6 -63 -17 -137z m479 -493 c7 0 49 -64 94 -141 231 -398
221 -379 203 -392 -13 -10 -80 14 -391 139 -206 83 -374 156 -374 162 0 6 46
36 103 68 56 32 147 84 202 116 74 43 106 57 125 53 13 -3 30 -5 38 -5z m-300
-372 c103 -42 196 -80 207 -85 11 -5 90 -37 175 -71 85 -33 157 -63 159 -65 2
-2 -296 -4 -662 -4 -367 0 -667 4 -667 8 0 5 93 62 208 127 114 65 220 127
235 138 24 16 34 18 67 9 28 -7 45 -6 62 3 13 7 24 13 26 14 1 1 87 -33 190
-74z m-880 -181 c12 -4 29 -18 36 -33 12 -22 12 -32 1 -58 -34 -81 -156 -30
-125 51 14 38 44 51 88 40z m1611 -11 c32 -28 35 -70 6 -99 -13 -13 -31 -24
-40 -24 -20 0 -57 19 -67 34 -15 22 -8 66 14 86 27 25 59 26 87 3z m-154 -102
c-9 -9 -204 -122 -504 -293 -95 -55 -104 -58 -121 -43 -23 21 -83 22 -115 1
-25 -17 -28 -16 -73 10 -26 15 -56 33 -67 39 -11 6 -47 26 -80 45 -33 19 -72
42 -87 50 -167 95 -318 186 -318 192 0 4 309 8 687 8 422 0 683 -4 678 -9z"/>
</g>
</svg>
